<?xml version="1.0" encoding="UTF-8"?>
<svg version="1.1" xmlns="http://www.w3.org/2000/svg" width="1211" height="1352">
<path d="M0 0 C394.68 0 789.36 0 1196 0 C1196 50.57482378 1196 50.57482378 1194.00376987 67.39134884 C1193.78374977 69.40555022 1193.5658494 71.419984 1193.3497934 73.43461445 C1192.76579324 78.82516269 1192.15287808 84.21203471 1191.53398285 89.5986723 C1190.85999239 95.51396496 1190.21478587 101.43241781 1189.56556886 107.35047108 C1188.42927463 117.6735203 1187.27559324 127.9945118 1186.10940552 138.31422424 C1184.86109812 149.36146808 1183.62366724 160.40985377 1182.39890862 171.45973396 C1182.32093667 172.16314586 1182.24296472 172.86655777 1182.16262999 173.59128518 C1181.76494984 177.1793345 1181.36744019 180.76740269 1180.96998991 184.35547747 C1178.10822115 210.1875349 1175.22324301 236.0169563 1172.32548714 261.84499931 C1169.45918069 287.39330395 1166.6028368 312.94269058 1163.75964165 338.49357796 C1163.67103511 339.28981365 1163.58242857 340.08604935 1163.49113699 340.9064134 C1162.68173776 348.17986571 1161.87245462 355.45333092 1161.06331286 362.72681187 C1159.05263806 380.80098891 1157.04040644 398.87499245 1155.02709866 416.94887638 C1154.93545939 417.77155163 1154.84382013 418.59422689 1154.74940392 419.44183169 C1150.30122036 459.37334208 1145.83501334 499.30283379 1141.36743164 539.23217773 C1135.25028572 593.90488664 1129.14381445 648.57877031 1123.05237803 703.25434995 C1122.76301748 705.85159461 1122.47365162 708.44883868 1122.18428462 711.04608263 C1120.55253026 725.69212359 1118.92087306 740.33817538 1117.28934625 754.98424169 C1108.27758576 835.88190388 1099.25699365 916.77858435 1082.6837681 1065.15867328 C1082.44556595 1067.28865619 1082.20736388 1069.4186391 1081.96916251 1071.54862209 C1081.81166673 1072.95693714 1081.65416937 1074.365252 1081.49667042 1075.77356669 C1080.337869 1086.13548689 1079.18022774 1096.49753622 1078.02325821 1106.8596611 C1076.7375197 1118.37504039 1075.45024969 1129.89024747 1074.16092936 1141.40522633 C1073.51124738 1147.20786245 1072.86224363 1153.01057222 1072.21510077 1158.81349211 C1071.62727229 1164.08431622 1071.03745032 1169.35491317 1070.44598312 1174.62533017 C1070.23287255 1176.52748161 1070.02050172 1178.4297161 1069.80893214 1180.33203955 C1069.52293628 1182.90258184 1069.23428427 1185.47281217 1068.94493824 1188.04297918 C1068.8630627 1188.78469663 1068.78118716 1189.52641407 1068.69683054 1190.29060781 C1068.28722638 1193.90292888 1067.7819236 1197.44862619 1067 1201 C1013.13546095 1216.40643917 959.26518064 1231.79269745 905.38609314 1247.14818192 C901.06780192 1248.37889155 896.74953446 1249.60968454 892.43128967 1250.8405571 C870.15306496 1257.19074052 847.87436217 1263.53922738 825.59313965 1269.87888527 C814.44975862 1273.04951931 803.30680082 1276.22163929 792.1640625 1279.39453125 C791.070777 1279.70581986 789.97749149 1280.01710847 788.85107613 1280.33783007 C760.77739962 1288.33178145 732.71787627 1296.37203421 704.68394333 1304.50430846 C698.7351176 1306.22986357 692.78528987 1307.95192018 686.83470154 1309.67138672 C686.02248601 1309.90611104 685.21027048 1310.14083537 684.37344235 1310.38267255 C681.16636183 1311.30945085 677.9592634 1312.23616679 674.75203884 1313.1624465 C665.68299526 1315.78189239 656.61812405 1318.4147257 647.5601294 1321.07213825 C642.05183907 1322.68705007 636.53919268 1324.28640327 631.02272487 1325.87315518 C627.9067999 1326.77006726 624.79432575 1327.6767389 621.6857872 1328.59897423 C618.36341737 1329.58385263 615.03423118 1330.54091077 611.7019043 1331.49145508 C610.27921596 1331.92446773 610.27921596 1331.92446773 608.82778645 1332.3662281 C602.2632087 1334.19420902 597.51421495 1333.85641636 591 1332 C590.20231799 1331.79114135 589.40463598 1331.5822827 588.58278179 1331.36709499 C586.02019014 1330.68339511 583.47278564 1329.957173 580.92480469 1329.22094727 C579.46617917 1328.80472422 579.46617917 1328.80472422 577.97808647 1328.38009262 C574.70825444 1327.445979 571.44008735 1326.5061697 568.171875 1325.56640625 C565.77267072 1324.87971875 563.37336518 1324.19338493 560.97396851 1323.50737 C555.71082488 1322.00170833 550.44840338 1320.49356039 545.18658447 1318.98327637 C537.3093849 1316.72233979 529.43084418 1314.46610454 521.55202127 1312.21083236 C507.7424432 1308.25777623 493.93396635 1304.30088513 480.12597656 1300.34228516 C457.02210918 1293.71873765 433.9164826 1287.10133657 410.8107276 1280.48437738 C401.98225 1277.95609275 393.15379747 1275.42772063 384.32534671 1272.8993423 C382.09567606 1272.26078775 379.86600474 1271.62223557 377.63633275 1270.98368573 C361.9800031 1266.49989878 346.32387199 1262.01541919 330.6678946 1257.53040242 C266.00572815 1239.00649295 201.33731791 1220.50463787 136.65711355 1202.04380268 C135.45026608 1201.69934779 134.24341861 1201.35489291 133 1201 C131.03965625 1186.32262439 129.22819002 1171.63771453 127.60059834 1156.91992283 C127.37558047 1154.90016607 127.15037149 1152.8804306 126.92499194 1150.86071417 C126.31174731 1145.36023031 125.7011872 1139.85945144 125.09110449 1134.3586161 C124.42482147 1128.35548711 123.75598831 1122.35264213 123.08749408 1116.34975904 C121.91807947 1105.84556888 120.75027233 1095.34120087 119.58358002 1084.83670807 C118.33290101 1073.57608587 117.08126644 1062.31557048 115.8284893 1051.0551815 C115.70942172 1049.98495121 115.70942172 1049.98495121 115.58794874 1048.89310011 C115.2646082 1045.9868021 114.94126152 1043.08050478 114.6179069 1040.17420833 C111.25242906 1009.92538856 107.89003996 979.67622596 104.52874736 949.42694087 C104.16751164 946.17607837 103.80627451 942.92521604 103.44503617 939.67435384 C103.35539007 938.86760697 103.26574398 938.06086011 103.17338133 937.22966637 C101.18414659 919.32818964 99.19412927 901.42679994 97.20397486 883.52542544 C96.38378995 876.14787466 95.56362185 868.77032202 94.74345034 861.39276975 C94.65282387 860.5775738 94.56219739 859.76237785 94.46882465 858.922479 C89.2792109 812.24123331 84.09055839 765.55988087 78.90392017 718.87830448 C78.71000728 717.1330253 78.51609436 715.38774611 78.32218143 713.64246693 C77.44672765 705.76308939 76.57128036 697.88371112 75.6958349 690.00433265 C75.30546793 686.49086542 74.91510053 682.97739824 74.52473309 679.46393107 C74.32934815 677.70538505 74.13396349 675.946839 73.9385791 674.18829292 C67.75475657 618.53116675 61.56741704 562.8744326 55.37719727 507.21801758 C53.81617964 493.18286299 52.25517588 479.14770685 50.69424915 465.11254215 C50.59813717 464.24834578 50.50202518 463.3841494 50.40300071 462.49376526 C47.44175474 435.86740307 44.48158249 409.24092167 41.52250957 382.61431789 C41.42963956 381.77864755 41.33676954 380.9429772 41.24108528 380.08198351 C39.20264618 361.7394443 37.16446691 343.39687623 35.12652745 325.0542815 C34.39740382 318.49178287 33.66826067 311.92928641 32.93910794 305.36679102 C32.75771694 303.73424035 32.57632694 302.10168956 32.39493796 300.46913866 C29.50359874 274.44638016 26.60967957 248.42390939 23.71447427 222.40158076 C20.8003973 196.20945609 17.88914618 170.0170189 14.98176479 143.82415012 C14.58030522 140.2073647 14.17881533 136.59058264 13.77730751 132.97380257 C13.69860161 132.26480911 13.61989571 131.55581565 13.53880478 130.82533755 C12.29118782 119.5873633 11.04062052 108.3497194 9.78883216 97.11220912 C8.55885412 86.06993511 7.33207045 75.02730922 6.10848595 63.9843247 C5.45357396 58.0744995 4.79725076 52.16484015 4.1370909 46.25559867 C3.5371011 40.88469991 2.94112187 35.51337214 2.34839797 30.14166681 C2.13410535 28.20612297 1.91832763 26.27074285 1.70091742 24.33554671 C1.40659879 21.71385979 1.11768283 19.09163123 0.8301118 16.46919686 C0.74476328 15.72065864 0.65941476 14.97212043 0.57147992 14.20089924 C0.49527981 13.49585267 0.4190797 12.7908061 0.3405705 12.06439448 C0.27427958 11.46792034 0.20798866 10.8714462 0.13968892 10.25689709 C-0.07154076 6.84414504 0 3.41928275 0 0 Z M267 268 C267.81654652 284.57068416 267.81654652 284.57068416 268.92382812 301.11499023 C269.01014999 302.2705542 269.09647186 303.42611816 269.18540955 304.61669922 C269.46481267 308.34752712 269.74785186 312.07806736 270.03125 315.80859375 C270.22933948 318.43603028 270.42729436 321.06347697 270.62512207 323.69093323 C271.03679351 329.15290291 271.45064413 334.61470428 271.86572266 340.07641602 C272.34461086 346.37828267 272.81934084 352.68045305 273.29206705 358.98278469 C273.75007726 365.08697616 274.21154238 371.19090143 274.67442322 377.29472542 C274.86992616 379.87785834 275.06448275 382.46106308 275.2580719 385.04434013 C275.52780434 388.63843515 275.8014688 392.23220969 276.07617188 395.82592773 C276.1551622 396.88926834 276.23415253 397.95260895 276.3155365 399.048172 C276.39119339 400.02742645 276.46685028 401.00668091 276.5447998 402.01560974 C276.60894829 402.86257133 276.67309677 403.70953291 276.73918915 404.58216 C277.00817327 407.0757701 277.50812588 409.54062942 278 412 C443.66 412 609.32 412 780 412 C775.05 477.835 775.05 477.835 770 545 C770 548.96 770 552.92 770 557 C659.45 557 548.9 557 435 557 C435 566.59169746 435.03439864 576.04231884 435.53491211 585.59741211 C435.59182724 586.7459668 435.64874237 587.89452148 435.7073822 589.07788086 C435.89342648 592.81124535 436.08521048 596.54428808 436.27734375 600.27734375 C436.40974281 602.90091091 436.54186379 605.52449212 436.67372131 608.14808655 C436.94919997 613.61717968 437.22785592 619.08610358 437.50854492 624.55493164 C437.83183461 630.85441777 438.15031464 637.15413304 438.466196 643.45399469 C438.77224067 649.55594866 439.08141674 655.65773932 439.39203072 661.75946236 C439.5231239 664.33932376 439.65348734 666.91922236 439.78309441 669.49915886 C439.96460748 673.10236566 440.14966891 676.70537327 440.33569336 680.30834961 C440.38820251 681.36359329 440.44071167 682.41883698 440.49481201 683.50605774 C440.5466716 684.49659149 440.59853119 685.48712524 440.65196228 686.50767517 C440.69528655 687.35614486 440.73861082 688.20461454 440.78324795 689.07879543 C441.07881657 693.06222439 441.55889458 697.03005125 442 701 C547.6 701 653.2 701 762 701 C758.37 754.79 754.74 808.58 751 864 C701.65606743 881.21299973 701.65606743 881.21299973 684.0625 887.10546875 C682.08756166 887.76922298 680.11271081 888.43323755 678.13793945 889.0974884 C673.10627426 890.7894447 668.07374478 892.4788117 663.04089355 894.16723633 C654.88299878 896.90432775 646.72620367 899.64468796 638.57003784 902.38692665 C635.77049987 903.32758052 632.9703698 904.26645426 630.17016602 905.2051239 C629.30397141 905.49623708 628.43777679 905.78735025 627.54533386 906.08728504 C625.88406758 906.64524279 624.22215143 907.20127015 622.55952454 907.75516033 C618.25388747 909.19876003 614.04295685 910.77317233 609.83203125 912.4777832 C599.90404776 916.05088707 590.52023298 911.42297361 581.03125 908.14453125 C579.56395226 907.64514459 578.09637562 907.14657676 576.62854004 906.64877319 C572.72190889 905.32136923 568.81918952 903.982808 564.91717529 902.64190292 C560.87016502 901.25325637 556.8196852 899.87480599 552.76953125 898.49536133 C546.38745571 896.32037428 540.00735547 894.13969948 533.62890625 891.95410156 C526.51705729 889.51734668 519.40086899 887.09365802 512.28125 884.6796875 C508.85400047 883.51611396 505.42698453 882.35185375 502 881.1875 C501.27675537 880.94206451 500.55351074 880.69662903 499.80834961 880.4437561 C484.14771193 875.12261399 468.58981176 869.53186869 453 864 C451.68 834.3 450.36 804.6 449 774 C400.82 774 352.64 774 303 774 C306.63 839.67 310.26 905.34 314 973 C353.79065841 986.26735481 353.79065841 986.26735481 393.65234375 999.3125 C406.48433547 1003.47623826 419.3044634 1007.67615226 432.125 1011.875 C436.81766353 1013.4115952 441.51037962 1014.94802981 446.203125 1016.484375 C447.36040604 1016.86325867 448.51768707 1017.24214233 449.71003723 1017.63250732 C466.44994364 1023.11226882 483.19477038 1028.57696559 499.93939209 1034.04229736 C505.02485329 1035.70220495 510.1101973 1037.36247022 515.1953125 1039.0234375 C516.22443253 1039.35954041 517.25355255 1039.69564331 518.31385803 1040.04193115 C520.39541497 1040.72202579 522.47682592 1041.40256744 524.55809021 1042.08355713 C529.69679396 1043.76426865 534.83776549 1045.43717321 539.98461914 1047.09277344 C549.03527939 1050.01209151 558.05054063 1052.97692956 566.98077393 1056.24917603 C570.83345593 1057.65693117 574.70025189 1059.02331199 578.56866455 1060.387146 C580.36039617 1061.03221721 582.14496848 1061.69763487 583.92059326 1062.38580322 C584.75423401 1062.7085321 585.58787476 1063.03126099 586.44677734 1063.36376953 C587.16513763 1063.64946808 587.88349792 1063.93516663 588.62362671 1064.22952271 C596.75548564 1066.7715382 602.29605172 1067.33249376 610.41259766 1064.50830078 C611.27542075 1064.22859688 612.13824385 1063.94889297 613.0272131 1063.6607132 C614.81725149 1063.07773615 616.60409675 1062.48486373 618.38762093 1061.88225174 C620.83684717 1061.05509992 623.29270258 1060.25462502 625.75437927 1059.46542358 C630.52402382 1057.93203974 635.27980203 1056.35829017 640.03515625 1054.78125 C641.79482149 1054.20000873 643.55457416 1053.61903213 645.31440735 1053.03829956 C649.00223033 1051.82085578 652.68953664 1050.60186598 656.37640381 1049.38153076 C665.01482284 1046.52239789 673.65603092 1043.67171141 682.29692841 1040.8200798 C685.11935103 1039.88854468 687.94167127 1038.95669985 690.76397705 1038.02481079 C703.62488598 1033.77903252 716.4926189 1029.55525247 729.375 1025.375 C732.5599032 1024.34116854 735.7448035 1023.30732813 738.9296875 1022.2734375 C739.71208298 1022.01951233 740.49447845 1021.76558716 741.30058289 1021.50396729 C753.04083285 1017.69111241 764.76929608 1013.84209574 776.5 1010 C793.14186272 1004.55027479 809.78592017 999.10746836 826.4375 993.6875 C827.29431366 993.40854889 828.15112732 993.12959778 829.03390503 992.8421936 C837.88268154 989.9615654 846.73290156 987.08544568 855.58586121 984.21769714 C859.34490672 982.99994855 863.1036197 981.78117519 866.86233521 980.56240845 C869.50540683 979.70599935 872.14905108 978.8513751 874.79272461 977.99682617 C876.38397918 977.48104144 877.97520789 976.96517689 879.56640625 976.44921875 C880.2943338 976.21452881 881.02226135 975.97983887 881.77224731 975.73803711 C885.45801812 974.55030975 885.45801812 974.55030975 889 973 C890.31915081 969.40739866 890.30506378 965.55847364 890.53684521 961.77214241 C890.58276754 961.03881345 890.62868987 960.30548449 890.67600378 959.54993343 C890.82990801 957.07745116 890.97842456 954.60467432 891.1269989 952.13186646 C891.23718173 950.34383119 891.34769562 948.55581631 891.4585126 946.76782024 C891.76324654 941.83551563 892.06328067 936.90293443 892.36258566 931.97029781 C892.68663321 926.64347832 893.01501892 921.31692612 893.34289551 915.99034119 C893.91383768 906.7054699 894.48204674 897.42043453 895.04849815 888.13528824 C895.88228419 874.46877649 896.72068399 860.80255058 897.56018577 847.13638888 C898.94175725 824.64448183 900.32024276 802.15238693 901.6965332 779.66015625 C901.77985637 778.2984546 901.86317959 776.93675294 901.94650284 775.57505129 C902.07149278 773.53240626 902.19648256 771.48976122 902.32147234 769.44711619 C902.44628864 767.40731001 902.57110569 765.36750388 902.69592285 763.32769775 C902.73707556 762.65515827 902.77822827 761.98261879 902.82062804 761.28969932 C905.41243068 718.93364094 908.00963193 676.57791312 910.60920008 634.2223307 C911.08597648 626.45370385 911.56249786 618.6850614 912.03882235 610.91640683 C915.63096048 552.33145123 919.25259226 493.748498 922.95446161 435.17037616 C923.08009505 433.18226381 923.20569864 431.19414958 923.33130212 429.20603535 C924.92345578 404.00497129 926.51829962 378.80407981 928.12360816 353.60384998 C928.70660834 344.45135621 929.28812648 335.2987691 929.86856033 326.14611223 C930.26595393 319.88204882 930.66558373 313.61813371 931.06704777 307.35432992 C931.3096145 303.5618138 931.55011147 299.76916855 931.79001651 295.97648321 C931.90010057 294.24295176 932.0110503 292.50947501 932.12295481 290.77606012 C932.27481641 288.42205511 932.42355692 286.06787234 932.5715456 283.71362114 C932.65489826 282.40745932 932.73825091 281.10129751 932.8241294 279.75555503 C933.00745112 275.84088827 933 271.91895684 933 268 C713.22 268 493.44 268 267 268 Z " fill="#FFFFFF" transform="translate(15,11)"/>
</svg>
