<?xml version="1.0" encoding="UTF-8"?>
<svg version="1.1" xmlns="http://www.w3.org/2000/svg" width="296" height="337">
<path d="M0 0 C96.69 0 193.38 0 293 0 C293 9.70120501 292.94530856 18.97545386 292.06436157 28.56500244 C291.96368389 29.72332919 291.86300622 30.88165594 291.7592777 32.07508349 C291.42510909 35.89995756 291.08101674 39.72386827 290.73681641 43.54785156 C290.49240563 46.31204062 290.25008967 49.07641247 290.00764465 51.84077454 C289.41940565 58.5327817 288.82360528 65.22409421 288.22493459 71.91517541 C287.73863525 77.35171133 287.25503908 82.78848148 286.77332687 88.22542572 C286.70452029 89.0019795 286.6357137 89.77853328 286.56482207 90.57861899 C286.42502369 92.15648809 286.28523017 93.73435762 286.14544146 95.31222758 C284.83837729 110.06190214 283.52253318 124.81078332 282.20373897 139.55941305 C281.07253779 152.21263277 279.94942888 164.86655021 278.83203125 177.52099609 C277.53233623 192.23993308 276.22730618 206.95838168 274.91400087 221.67611098 C274.77409375 223.2441944 274.63419498 224.81227855 274.49430466 226.38036346 C274.42548332 227.1517958 274.35666199 227.92322813 274.28575516 228.7180372 C273.80120373 234.1537775 273.32051902 239.58985177 272.84135818 245.02606964 C272.25813335 251.64192433 271.66916864 258.25723742 271.07275797 264.87191698 C270.76866202 268.24627064 270.4672029 271.62080532 270.17279625 274.99601936 C269.8525819 278.65100118 269.52240601 282.3049472 269.18960571 285.95880127 C269.05243368 287.56498805 269.05243368 287.56498805 268.91249049 289.20362306 C268.77589001 290.66901981 268.77589001 290.66901981 268.63652992 292.16402054 C268.5613453 293.0074398 268.48616067 293.85085906 268.40869772 294.71983647 C267.96567668 297.19149304 267.3757974 298.8982978 266 301 C263.42282338 302.04305982 261.05774299 302.81353085 258.38623047 303.5144043 C257.59853271 303.73461746 256.81083496 303.95483063 255.99926758 304.18171692 C253.37584246 304.91106988 250.74679832 305.61752312 248.1171875 306.32421875 C246.26817401 306.83361046 244.41955729 307.34444433 242.57131958 307.85664368 C237.67184949 309.21036301 232.76737111 310.54497555 227.86157227 311.87554932 C222.99981129 313.19730208 218.14256852 314.53541735 213.28515625 315.87304688 C207.59250312 317.44066815 201.89908168 319.00500232 196.20037842 320.55050659 C187.57411682 322.89316999 178.96934004 325.27801964 170.40722656 327.84619141 C168.93094745 328.28339824 167.45456103 328.72024294 165.97805786 329.1566925 C163.30153015 329.94795991 160.63564447 330.76625347 157.97286987 331.60246277 C156.20376755 332.12565849 156.20376755 332.12565849 154.39892578 332.65942383 C153.39628693 332.96858231 152.39364807 333.27774078 151.36062622 333.5962677 C143.29165328 334.56564209 134.91531873 331.24730083 127.21362305 329.05078125 C126.18631577 328.76109467 125.15900848 328.47140808 124.10057068 328.17294312 C120.73653759 327.22324378 117.37410008 326.26802937 114.01171875 325.3125 C111.66151602 324.64728455 109.31123916 323.98233096 106.96089172 323.31762695 C102.05062853 321.92804656 97.14112622 320.5358191 92.23217773 319.14160156 C85.94092164 317.35493991 79.64802799 315.57412798 73.3545866 313.79518127 C68.50790118 312.42463793 63.66197811 311.05141561 58.81629372 309.67733765 C56.49566217 309.01954865 54.17482054 308.36250035 51.85376549 307.70620728 C48.61488267 306.78987277 45.3770156 305.87003416 42.1394043 304.94921875 C40.70316711 304.54393448 40.70316711 304.54393448 39.23791504 304.13046265 C29.72195006 301.41570258 29.72195006 301.41570258 27 300 C26.06839853 297.20519558 25.73027786 294.99892722 25.47090054 292.08455086 C25.3783412 291.0645097 25.28578187 290.04446854 25.19041771 288.99351704 C25.09216589 287.86950926 24.99391408 286.74550148 24.89268494 285.58743286 C24.73214476 283.80028376 24.73214476 283.80028376 24.56836134 281.97703063 C24.27153892 278.66442631 23.97799407 275.35156071 23.68581665 272.03854537 C23.37010796 268.46768361 23.05021886 264.8971961 22.73085022 261.32666016 C22.10563594 254.32920894 21.48432416 247.33141639 20.86433738 240.33350028 C20.14247893 232.18723964 19.41689313 224.04131232 18.69117493 215.89539479 C17.39648035 201.36135796 16.10535902 186.82700588 14.81616211 172.29248047 C13.56476689 158.18415422 12.31060776 144.07607716 11.0534668 129.96826172 C9.68529142 114.61434781 8.31847605 99.2603141 6.9541865 83.90605438 C6.88204753 83.09417479 6.80990856 82.2822952 6.73558356 81.4458132 C6.5906892 79.81511292 6.44579773 78.18441237 6.30090917 76.55371157 C5.79616755 70.87379828 5.29050498 65.1939674 4.78452873 59.51416397 C4.16793181 52.5920626 3.55297067 45.66981812 2.94007223 38.74738826 C2.62725023 35.21458403 2.31372879 31.68184565 1.99830246 28.14927292 C1.6565811 24.32190439 1.31827854 20.49423815 0.98033142 16.66653442 C0.87984888 15.54698809 0.77936635 14.42744175 0.67583889 13.27396977 C0.5858873 12.24871312 0.49593572 11.22345646 0.40325832 10.16713142 C0.32481857 9.28362955 0.24637881 8.40012768 0.16556209 7.48985302 C-0.00012448 4.99812804 0 2.49722755 0 0 Z M56 62 C56.68102529 77.80370551 56.68102529 77.80370551 57.84790039 93.55395508 C57.92731841 94.43867084 58.00673643 95.32338659 58.08856106 96.23491192 C58.33746817 98.99684515 58.59234657 101.75818345 58.84765625 104.51953125 C59.00589795 106.26538491 59.16373379 108.0112754 59.32116699 109.75720215 C59.89673695 116.10941165 60.48005051 122.46091761 61.0625 128.8125 C62.361875 143.064375 63.66125 157.31625 65 172 C107.24 172 149.48 172 193 172 C192.67 172.66 192.34 173.32 192 174 C191.79925715 175.32890123 191.64604899 176.66518743 191.51928711 178.00317383 C191.43927963 178.82775589 191.35927216 179.65233795 191.27684021 180.50190735 C191.19450638 181.39459824 191.11217255 182.28728912 191.02734375 183.20703125 C190.93997452 184.12457687 190.85260529 185.0421225 190.7625885 185.98747253 C190.57833925 187.93165367 190.39605645 189.87602201 190.21557617 191.82055664 C189.93955837 194.79035309 189.65681287 197.75945059 189.37304688 200.72851562 C189.1949109 202.61714966 189.01716386 204.50582044 188.83984375 206.39453125 C188.71330666 207.72445854 188.71330666 207.72445854 188.58421326 209.08125305 C188.21684084 213.06800074 187.88922304 216.99090461 188 221 C187.45214844 221.09506836 186.90429688 221.19013672 186.33984375 221.28808594 C181.07454848 222.26623225 175.95950427 223.53382956 170.8125 225.015625 C169.52346304 225.38290214 168.23440015 225.75008829 166.9453125 226.1171875 C164.96750175 226.68157518 162.9926273 227.25220999 161.02246094 227.84277344 C152.75440792 230.30882796 146.35855067 231.65488659 138 229 C135.60726701 228.349734 133.2139922 227.70145988 130.8203125 227.0546875 C127.59260687 226.14524175 124.36671599 225.23008184 121.14257812 224.30810547 C119.22389709 223.76092958 117.30337644 223.22021735 115.3828125 222.6796875 C114.25246582 222.35726074 113.12211914 222.03483398 111.95751953 221.70263672 C108.85802657 220.84590483 108.85802657 220.84590483 105 221 C105.04125 219.741875 105.0825 218.48375 105.125 217.1875 C105.14942018 208.75032927 103.94306225 200.36967748 103 192 C91.12 192 79.24 192 67 192 C67.5485072 199.31427976 68.09887575 206.62836921 68.65405273 213.94213867 C68.84233379 216.4300109 69.02951637 218.91796652 69.21557617 221.40600586 C69.48327197 224.98313552 69.7549224 228.55994626 70.02734375 232.13671875 C70.10967758 233.24834885 70.19201141 234.35997894 70.27684021 235.5052948 C70.35684769 236.54599625 70.43685516 237.58669769 70.51928711 238.65893555 C70.58812607 239.5716069 70.65696503 240.48427826 70.72789001 241.42460632 C70.99964491 243.99663924 71.45191674 246.47369902 72 249 C81.39267442 251.64103042 90.7893487 254.26726367 100.19136906 256.87484074 C104.55728897 258.0861908 108.92168517 259.30253549 113.28295898 260.53051758 C117.49423227 261.7160632 121.70903124 262.88819577 125.9265728 264.05123711 C127.53258572 264.49661945 129.13728531 264.94676668 130.74058723 265.4018116 C132.99178427 266.03985087 135.24711515 266.66057078 137.50415039 267.27758789 C138.49030586 267.56350296 138.49030586 267.56350296 139.49638367 267.85519409 C146.45723395 269.71752241 152.32957562 268.02533784 159.11279297 266.15820312 C159.78520523 265.97434555 160.45761749 265.79048798 161.15040588 265.60105896 C163.34886056 264.99870928 165.54554662 264.39017794 167.7421875 263.78125 C169.27670735 263.35881069 170.81130537 262.93665523 172.34597778 262.51477051 C175.54912419 261.63319497 178.7514227 260.74862189 181.953125 259.86181641 C186.06433371 258.72329482 190.1774072 257.59168588 194.29110527 256.46219635 C197.45381587 255.59313029 200.61561503 254.72078715 203.77713394 253.84739685 C205.29439521 253.42860471 206.81192015 253.01076665 208.3297081 252.59388733 C210.44192254 252.01314351 212.55289368 251.42808721 214.66357422 250.84179688 C215.86601776 250.50950073 217.0684613 250.17720459 218.30734253 249.83483887 C220.89289516 249.26243494 220.89289516 249.26243494 222 248 C222.21595709 246.60895488 222.37072998 245.20833495 222.49989319 243.80656433 C222.58540939 242.90224167 222.6709256 241.99791901 222.7590332 241.06619263 C222.89390137 239.56619217 222.89390137 239.56619217 223.03149414 238.03588867 C223.12917587 236.9887822 223.2268576 235.94167572 223.32749939 234.86283875 C223.65109759 231.38160533 223.96820837 227.89981346 224.28515625 224.41796875 C224.50759003 222.00756244 224.73036754 219.59718783 224.95347595 217.18684387 C225.42104188 212.12538148 225.88561788 207.06365662 226.34790039 202.00170898 C226.94103 195.50775747 227.5396611 189.01432864 228.14029789 182.52106762 C228.60079723 177.53959717 229.05930777 172.55794539 229.51711845 167.57622719 C229.73721062 165.18195253 229.95770551 162.78771485 230.17860603 160.39351463 C230.4869192 157.04661046 230.79278277 153.69949173 231.09790039 150.35229492 C231.18983673 149.35836731 231.28177307 148.3644397 231.37649536 147.34039307 C231.45919174 146.42761093 231.54188812 145.5148288 231.62709045 144.5743866 C231.69953507 143.78294345 231.77197969 142.9915003 231.84661961 142.17607403 C231.99141181 140.12184444 232 138.0593261 232 136 C187.78 136 143.56 136 98 136 C97.67 129.73 97.34 123.46 97 117 C96.34 110.73 95.68 104.46 95 98 C141.2 98 187.4 98 235 98 C237.27195406 79.99029528 237.27195406 79.99029528 238 62 C177.94 62 117.88 62 56 62 Z " fill="#FFFFFF" transform="translate(3,3)"/>
</svg>
