<?xml version="1.0" encoding="UTF-8"?>
<svg version="1.1" xmlns="http://www.w3.org/2000/svg" width="512" height="512">
<path d="M0 0 C168.96 0 337.92 0 512 0 C512 168.96 512 337.92 512 512 C343.04 512 174.08 512 0 512 C0 343.04 0 174.08 0 0 Z " fill="#FEFEFE" transform="translate(0,0)"/>
<path d="M0 0 C8.35145238 6.62318119 15.69724026 14.38068181 20.75 23.8125 C20.75 24.8025 20.75 25.7925 20.75 26.8125 C18.73730469 28.40307617 18.73730469 28.40307617 15.921875 30.10546875 C14.89924561 30.73259766 13.87661621 31.35972656 12.82299805 32.00585938 C11.17811401 32.99295898 11.17811401 32.99295898 9.5 34 C7.29197563 35.34602849 5.08493303 36.69366887 2.87890625 38.04296875 C1.81687988 38.69056152 0.75485352 39.3381543 -0.33935547 40.00537109 C-4.73719328 42.73585217 -8.96990489 45.66983086 -13.17578125 48.6875 C-13.86027344 49.05875 -14.54476562 49.43 -15.25 49.8125 C-18.84459922 48.61430026 -19.11607696 47.78427544 -21 44.625 C-24.96386297 38.48394136 -29.60765636 33.6115183 -36.75390625 31.28515625 C-45.04964935 29.71428784 -53.93831944 29.56434722 -61.515625 33.609375 C-65.57802058 36.4274332 -67.98893422 40.08350331 -69.25 44.8125 C-70.01260287 52.66597163 -68.84554035 58.27824704 -64.08984375 64.75390625 C-61.24452887 68.08659154 -57.88330541 70.0567182 -54 72 C-53.2769165 72.37310303 -52.55383301 72.74620605 -51.80883789 73.13061523 C-44.15984208 76.99997645 -36.28814369 80.37497497 -28.4296875 83.79125977 C-3.62897824 94.58479189 20.99621201 107.16853385 31.7421875 133.6953125 C37.31369701 150.92812097 37.52147095 172.25673482 29.75 188.8125 C27.66452044 192.69842775 25.37469172 196.27193224 22.75 199.8125 C22.028125 200.84375 21.30625 201.875 20.5625 202.9375 C7.03621678 218.23192481 -14.68366652 225.78560096 -34.58203125 227.01904297 C-38.05745469 227.11530541 -41.5233009 227.14172754 -45 227.125 C-46.23210205 227.11936035 -47.4642041 227.1137207 -48.73364258 227.10791016 C-74.2264903 226.76883363 -98.21991017 218.61812407 -116.59375 200.578125 C-120.47155188 196.54064893 -123.98065761 192.35492732 -127.25 187.8125 C-127.78882813 187.06613281 -128.32765625 186.31976563 -128.8828125 185.55078125 C-132.28189996 180.52644705 -132.28189996 180.52644705 -132.16601562 177.93286133 C-130.75028254 174.6557713 -128.39160103 173.80228373 -125.30859375 172.09765625 C-124.40694237 171.59122841 -124.40694237 171.59122841 -123.48707581 171.0745697 C-121.56048277 169.99566701 -119.62457977 168.93493884 -117.6875 167.875 C-115.78206681 166.81733846 -113.87871018 165.75602201 -111.97573853 164.69393921 C-110.74657298 164.00879971 -109.51609492 163.32600921 -108.28427124 162.6456604 C-104.95990387 160.80286229 -101.7219638 158.87939865 -98.53515625 156.80859375 C-95.25 154.8125 -95.25 154.8125 -92.25 154.8125 C-90.6015625 156.82421875 -90.6015625 156.82421875 -88.875 159.5 C-86.26968072 163.37527617 -83.73830573 166.67302485 -80.25 169.8125 C-79.76273437 170.29203125 -79.27546875 170.7715625 -78.7734375 171.265625 C-69.05922501 180.3813315 -56.3400748 183.32993727 -43.3359375 183.0625 C-33.45978413 182.26240656 -24.94539782 179.50789782 -17.875 172.4375 C-13.88040521 165.98469303 -13.83230374 160.0451538 -15.25 152.8125 C-17.85554942 144.99585173 -24.76677725 140.35769345 -31.8671875 136.78515625 C-33.94665995 135.8013216 -36.03292274 134.83173875 -38.125 133.875 C-39.22908203 133.35703857 -40.33316406 132.83907715 -41.47070312 132.30541992 C-47.85863735 129.32324082 -54.29132045 126.44985973 -60.75 123.625 C-73.45403777 118.05565343 -85.92745893 112.25340055 -96.25 102.8125 C-97.01570313 102.14992188 -97.78140625 101.48734375 -98.5703125 100.8046875 C-110.14888067 90.16810453 -117.46390403 74.38073181 -118.37475586 58.65917969 C-118.99603659 39.74592341 -116.10058495 22.86219584 -102.9375 8.375 C-77.48867326 -18.36628596 -29.77747722 -21.23164511 0 0 Z " fill="#040300" transform="translate(437.25,245.1875)"/>
<path d="M0 0 C16.17 0 32.34 0 49 0 C49.06785429 22.8188757 49.12306155 45.63766907 49.15543652 68.45662022 C49.17087173 79.05306689 49.19189695 89.64944619 49.22631836 100.24584961 C49.2563235 109.48718006 49.27559929 118.7284617 49.28226548 127.96983951 C49.28615899 132.85807814 49.29523874 137.74617715 49.31719017 142.6343708 C49.33773136 147.24640835 49.34379861 151.85825033 49.33932304 156.47032928 C49.34014043 158.15238703 49.34600013 159.83445212 49.35761642 161.51646996 C49.49499266 182.4562961 45.56279991 202.83864316 30.75 218.75 C14.15804195 234.19641083 -7.21597038 237.88382638 -29.05078125 237.33984375 C-50.10275966 236.3938009 -68.59075454 228.18849712 -83.125 212.8125 C-95.11680113 198.73623446 -95.11680113 198.73623446 -94.93896484 193.04760742 C-93.50851551 189.92821622 -91.29212534 189.01441508 -88.34765625 187.3203125 C-87.77349472 186.98506561 -87.19933319 186.64981873 -86.60777283 186.30441284 C-84.76603347 185.23254685 -82.91476732 184.17854786 -81.0625 183.125 C-79.85022716 182.42435975 -78.63863065 181.72254789 -77.42773438 181.01953125 C-75.06652261 179.64973097 -72.70094317 178.28794901 -70.33251953 176.93066406 C-66.47558731 174.69618641 -62.67409026 172.37971314 -58.88842773 170.02685547 C-57 169 -57 169 -55 169 C-53.80179216 170.85043427 -52.69105018 172.75790262 -51.625 174.6875 C-47.03456768 182.96847812 -42.55108374 189.03837605 -33.234375 191.828125 C-25.98331611 193.3087077 -19.10737693 193.19429559 -12 191 C-10.64297088 190.03240001 -9.30395506 189.03801685 -8 188 C-7.34 188 -6.68 188 -6 188 C-5.30580437 186.34461042 -4.64896236 184.67363977 -4 183 C-3.48942551 181.80234512 -2.97885101 180.60469025 -2.45280457 179.3707428 C-0.0820828 172.14822099 -0.55962076 164.52089799 -0.56762695 157.00561523 C-0.55859984 155.29001667 -0.5482703 153.57442453 -0.53674316 151.85884094 C-0.50925847 147.22314086 -0.49990027 142.58756345 -0.49388909 137.95179248 C-0.48448316 133.09908395 -0.458278 128.24646625 -0.43388367 123.39381409 C-0.39027595 114.21431317 -0.36169382 105.03482995 -0.33856028 95.85525709 C-0.31147788 85.40053947 -0.26756825 74.94591347 -0.22227156 64.49126136 C-0.12950728 42.99421067 -0.06000999 21.4971688 0 0 Z " fill="#040400" transform="translate(230,235)"/>
</svg>
