<?xml version="1.0" encoding="UTF-8"?>
<svg version="1.1" xmlns="http://www.w3.org/2000/svg" width="848" height="880">
<path d="M0 0 C1.69901442 1.54248334 3.42438236 2.98750093 5.22265625 4.41015625 C8.14551118 6.94329719 10.56394281 9.62117959 13.05859375 12.56640625 C14.46127259 14.18530831 15.90932458 15.76538779 17.38671875 17.31640625 C42.10038595 43.33079277 44.79934087 74.9592036 44.2734375 109.54296875 C43.57078697 135.96678211 38.08924024 161.97947545 33.03515625 187.84765625 C32.82276306 188.94784088 32.82276306 188.94784088 32.6060791 190.07025146 C27.74092054 215.24867784 19.9776217 239.50027894 12.03515625 263.84765625 C11.77802856 264.6385968 11.52090088 265.42953735 11.25598145 266.2444458 C-4.26920307 313.94395401 -26.00538575 359.21801518 -49.65185547 403.38818359 C-51.06907363 406.04289832 -52.47162184 408.70513303 -53.875 411.3671875 C-60.63453155 424.10013504 -67.84954087 436.48769556 -75.40454102 448.75952148 C-75.7593454 449.33627121 -76.11414978 449.91302094 -76.47970581 450.50724792 C-77.44529511 452.07432062 -78.41430266 453.63928561 -79.38354492 455.20410156 C-80.68789352 457.38466148 -81.87289623 459.55562065 -82.96484375 461.84765625 C-60.0527292 470.59591817 -36.93015102 468.32403973 -13.27734375 464.41015625 C30.81771658 457.22991935 30.81771658 457.22991935 40.41015625 463.3671875 C45.07365242 467.18958882 47.52450514 470.46459268 48.44140625 476.5390625 C48.78804365 487.15483287 44.86406917 494.82535608 38.09765625 502.84765625 C4.87788234 537.45158741 -41.56169959 548.89858787 -87.96484375 551.84765625 C-89.09148438 551.91984375 -90.218125 551.99203125 -91.37890625 552.06640625 C-103.92361187 552.43267503 -119.0548637 551.8176496 -130.96484375 547.84765625 C-131.05983154 548.81960938 -131.15481934 549.7915625 -131.25268555 550.79296875 C-134.94773021 588.41626953 -139.74001415 625.82219052 -145.10117722 663.24142838 C-145.45972671 665.74936427 -145.81599077 668.25761506 -146.17166138 670.76596069 C-157.15066222 748.06985541 -157.15066222 748.06985541 -178.96484375 772.84765625 C-179.72796875 773.85828125 -180.49109375 774.86890625 -181.27734375 775.91015625 C-205.02543508 801.86737236 -248.18579641 814.16992789 -282.60717773 815.82250977 C-306.71507198 816.42965481 -329.40653796 809.8018633 -347.40234375 793.34765625 C-349.29056396 791.54433803 -351.12746173 789.7040926 -352.96484375 787.84765625 C-353.68027344 787.15414062 -354.39570313 786.460625 -355.1328125 785.74609375 C-379.399432 760.65605603 -384.08251175 724.20090295 -386.84521484 691.12597656 C-387.08571681 688.27163583 -387.34298257 685.41915853 -387.6015625 682.56640625 C-390.15221137 653.3418283 -390.12824408 623.9165097 -390.49707031 594.60015869 C-390.54874397 590.54200573 -390.6036414 586.48389622 -390.65820312 582.42578125 C-390.76342966 574.56644374 -390.86532121 566.70706829 -390.96484375 558.84765625 C-391.51107391 559.33012817 -392.05730408 559.8126001 -392.62008667 560.30969238 C-393.33826569 560.94161499 -394.0564447 561.5735376 -394.79638672 562.22460938 C-395.86323196 563.16487976 -395.86323196 563.16487976 -396.95162964 564.12414551 C-412.78398333 577.67820889 -435.35843958 585.78701583 -455.96484375 587.84765625 C-456.6000293 587.9132373 -457.23521484 587.97881836 -457.88964844 588.04638672 C-486.14586234 590.78785745 -522.56584764 586.63115865 -545.05859375 568.125 C-550.84411296 562.74397684 -554.12253543 557.34221186 -554.46484375 549.34765625 C-554.1287976 541.49935255 -550.89372757 535.80414863 -545.171875 530.50390625 C-533.67269991 521.8744368 -518.29684551 519.53518229 -504.609375 516.37890625 C-479.15520503 510.48741982 -464.30932816 501.84594364 -448.96484375 479.84765625 C-450.05539062 479.76128906 -451.1459375 479.67492187 -452.26953125 479.5859375 C-469.17877543 478.07885449 -484.40888238 473.52432994 -499.96484375 466.84765625 C-500.51011719 467.45351563 -501.05539062 468.059375 -501.6171875 468.68359375 C-502.74833984 469.94042969 -502.74833984 469.94042969 -503.90234375 471.22265625 C-504.72347656 472.1353125 -505.54460937 473.04796875 -506.390625 473.98828125 C-508.03269122 475.81224555 -509.67581127 477.63526206 -511.3203125 479.45703125 C-514.68745995 483.18929107 -518.04528637 486.92607108 -521.33984375 490.72265625 C-524.32401564 494.15098396 -527.3869401 497.50366487 -530.46484375 500.84765625 C-540.19805385 511.43313567 -549.53757038 522.36224542 -558.58984375 533.53515625 C-562.21675144 537.99107141 -565.98516774 542.28460061 -569.8671875 546.51953125 C-571.14418998 547.93683754 -572.39464123 549.37949198 -573.59375 550.86328125 C-581.55514331 560.68033766 -592.11000002 568.4915979 -603.96484375 572.84765625 C-605.03734375 573.26015625 -606.10984375 573.67265625 -607.21484375 574.09765625 C-622.67215598 578.31328686 -637.33181427 575.43807156 -651.30859375 568.125 C-674.79787261 554.23861626 -689.82606788 528.88185982 -702.96484375 505.84765625 C-703.38443359 505.11450195 -703.80402344 504.38134766 -704.23632812 503.62597656 C-734.0139712 450.95167556 -751.79578086 390.07159765 -766.96484375 331.84765625 C-767.17627014 331.03999817 -767.38769653 330.23234009 -767.60552979 329.40020752 C-819.26164949 131.96638395 -819.26164949 131.96638395 -772.46484375 24.59765625 C-767.86044935 16.874182 -762.76525183 9.71987887 -756.96484375 2.84765625 C-756.54267578 2.34186035 -756.12050781 1.83606445 -755.68554688 1.31494141 C-748.66570604 -7.01650127 -740.80957459 -13.81418726 -731.96484375 -20.15234375 C-731.40958008 -20.55050293 -730.85431641 -20.94866211 -730.28222656 -21.35888672 C-677.92359646 -58.23878418 -608.23838378 -56.57519473 -547.88476562 -46.19165039 C-524.36969283 -41.96406538 -501.15304445 -36.18247879 -478.69433594 -27.95410156 C-472.38365764 -25.67018102 -467.61949844 -23.97564211 -461.19189453 -26.98144531 C-459.25995665 -28.01759694 -457.39691664 -29.13273119 -455.52734375 -30.27734375 C-408.81325384 -57.5666335 -353.09194611 -58.46594455 -301.16455078 -48.74145508 C-299.95524902 -48.52255615 -298.74594727 -48.30365723 -297.5 -48.078125 C-296.43144775 -47.87614502 -295.36289551 -47.67416504 -294.26196289 -47.46606445 C-286.95561483 -46.77086584 -280.06399661 -48.74793294 -273.04296875 -50.55078125 C-271.10944023 -51.03541655 -269.17584416 -51.51978246 -267.2421875 -52.00390625 C-264.2472498 -52.75932472 -261.25309918 -53.51758232 -258.26025391 -54.28125 C-239.12977463 -59.14908886 -220.46093768 -62.37653973 -200.72729492 -63.2331543 C-198.26610727 -63.34033307 -195.80604528 -63.46291236 -193.34570312 -63.58789062 C-122.19163703 -67.06188456 -53.1960705 -48.93328021 0 0 Z M-241.96484375 -31.15234375 C-241.96484375 -30.49234375 -241.96484375 -29.83234375 -241.96484375 -29.15234375 C-241.45324707 -28.90701904 -240.94165039 -28.66169434 -240.41455078 -28.40893555 C-201.97153762 -9.86397119 -166.04484268 16.68331439 -139.96484375 50.84765625 C-138.94092896 52.15559402 -137.91611754 53.46283015 -136.890625 54.76953125 C-125.75588774 69.04173484 -116.08702292 83.8425013 -107.21826172 99.61962891 C-106.43880848 101.00515486 -105.65479793 102.38813967 -104.86376953 103.76708984 C-91.88636501 126.410766 -80.89072022 151.97022247 -82.26953125 178.4453125 C-82.31517715 179.3533815 -82.36082306 180.2614505 -82.40785217 181.19703674 C-82.98601275 191.60665773 -84.17191469 201.93612928 -85.40234375 212.28515625 C-85.62234391 214.19068613 -85.84174615 216.09628515 -86.06054688 218.00195312 C-86.95736932 225.74086644 -87.88094492 233.4560009 -89.09765625 241.15234375 C-90.23121187 248.94345387 -90.39898081 256.67964025 -90.40234375 264.53515625 C-90.40540527 265.3208902 -90.4084668 266.10662415 -90.41162109 266.91616821 C-90.42477358 280.11649964 -89.19012449 292.96062622 -87.46484375 306.03515625 C-85.52196728 320.82669226 -84.45535992 335.36117196 -84.46484375 350.28515625 C-84.460896 351.13145599 -84.45694824 351.97775574 -84.45288086 352.84970093 C-84.41689161 368.82677505 -85.97413528 384.92746531 -90.58984375 400.28515625 C-90.83492676 401.12715576 -91.08000977 401.96915527 -91.33251953 402.83666992 C-94.37368196 412.83446832 -98.61580372 422.36082244 -102.96484375 431.84765625 C-101.97484375 432.83765625 -100.98484375 433.82765625 -99.96484375 434.84765625 C-96.70143546 431.85298869 -94.59909554 428.81462937 -92.42578125 424.96484375 C-92.10346527 424.39800369 -91.78114929 423.83116364 -91.44906616 423.24714661 C-90.40618441 421.40922681 -89.37280391 419.56616759 -88.33984375 417.72265625 C-87.61667305 416.44220309 -86.89303689 415.16201271 -86.16894531 413.88208008 C-84.73899373 411.35128032 -83.3132435 408.81819158 -81.89160156 406.28271484 C-80.30459692 403.45337432 -78.71094471 400.62801233 -77.11328125 397.8046875 C-65.98407474 378.05768376 -55.86809807 357.88972999 -46.50683594 337.24658203 C-45.52563136 335.08376853 -44.53980992 332.92303924 -43.54785156 330.76513672 C-15.36792677 269.42460209 6.70847144 202.98223103 15.03515625 135.84765625 C15.1522998 134.93113281 15.26944336 134.01460937 15.39013672 133.0703125 C19.17515403 102.4302318 21.30852537 66.84339 2.03515625 40.84765625 C-0.81768871 37.36264679 -3.83887332 34.08847863 -6.96484375 30.84765625 C-7.83367187 29.93886719 -8.7025 29.03007813 -9.59765625 28.09375 C-15.69850199 21.84516299 -22.09457417 16.22967942 -28.96484375 10.84765625 C-29.97289062 10.03425781 -30.9809375 9.22085938 -32.01953125 8.3828125 C-39.33400015 2.53913881 -46.95076941 -2.47439113 -55.09277344 -7.09082031 C-56.30569443 -7.77858511 -57.51495626 -8.47286005 -58.71972656 -9.17480469 C-74.07930979 -18.10479493 -90.75373116 -24.23652149 -107.83984375 -28.96484375 C-108.78061768 -29.23047119 -109.7213916 -29.49609863 -110.69067383 -29.76977539 C-131.06976696 -35.13109892 -151.33665826 -36.78754207 -172.33984375 -36.52734375 C-174.68188121 -36.51158862 -177.02392238 -36.49637521 -179.3659668 -36.48168945 C-200.4040543 -36.30461647 -221.3705646 -35.88303574 -241.96484375 -31.15234375 Z M-474.49487305 17.95800781 C-506.35713581 51.46603767 -522.3526944 96.25053591 -530.96484375 140.84765625 C-531.36832534 142.84768939 -531.77196729 144.84769019 -532.17578125 146.84765625 C-534.27445526 157.52336271 -535.65298754 167.96387467 -535.96484375 178.84765625 C-531.58770676 177.5218888 -527.56548404 175.7750174 -523.4440918 173.82666016 C-494.30427628 160.11616891 -459.46254135 150.69564922 -427.65234375 160.59765625 C-410.81064656 166.79046485 -399.51018229 177.00521828 -391.71484375 193.22265625 C-383.14170897 213.07258286 -380.29573262 234.71059241 -377.71484375 256.03515625 C-377.63194092 256.71549927 -377.54903809 257.39584229 -377.46362305 258.09680176 C-371.31101352 309.19437845 -378.50604317 353.55109477 -397.8515625 400.83203125 C-398.28876114 401.90075974 -398.72595978 402.96948822 -399.17640686 404.07060242 C-401.38236389 409.45645709 -403.59843775 414.83780548 -405.83227539 420.2121582 C-414.65498655 438.46974355 -414.65498655 438.46974355 -418.96484375 457.84765625 C-417.11632812 457.97720703 -417.11632812 457.97720703 -415.23046875 458.109375 C-400.543857 459.28953589 -388.78865167 462.13659633 -377.96484375 472.84765625 C-367.85967682 484.72912206 -363.59315053 498.16854209 -363.75366211 513.57543945 C-363.75497635 514.49282394 -363.75629059 515.41020844 -363.75764465 516.35539246 C-363.76409703 519.36984859 -363.78455279 522.38404451 -363.8046875 525.3984375 C-363.8109794 527.53752873 -363.81621228 529.67662331 -363.82044983 531.8157196 C-363.83372451 537.45514284 -363.85808421 543.09445688 -363.88580322 548.73382568 C-364.07956261 588.87061737 -364.21335675 628.87008552 -361.08984375 668.91015625 C-360.90875478 671.28979355 -360.72768406 673.66943224 -360.54663086 676.04907227 C-360.03881037 682.65022882 -359.50632385 689.24918662 -358.96484375 695.84765625 C-358.89610046 696.69888062 -358.82735718 697.55010498 -358.75653076 698.42712402 C-356.72832612 723.46567732 -351.81537608 745.67094652 -335.96484375 765.84765625 C-335.4234375 766.55277344 -334.88203125 767.25789062 -334.32421875 767.984375 C-325.23795146 779.12991315 -311.24751651 786.19065008 -296.96484375 787.84765625 C-267.45709069 790.06836476 -231.785208 781.96968162 -208.02734375 763.53515625 C-157.7546548 719.28314861 -164.33773697 607.8150027 -157.52734375 544.97265625 C-157.33880325 543.2512442 -157.33880325 543.2512442 -157.14645386 541.49505615 C-155.89719361 530.03432045 -154.70780725 518.60954881 -154.34339905 507.08084106 C-153.93516202 496.13548364 -151.35604586 484.88932747 -144.96484375 475.84765625 C-144.33835937 474.93306641 -144.33835937 474.93306641 -143.69921875 474 C-137.36942416 465.72397546 -127.58224498 461.20644497 -117.96484375 457.84765625 C-119.38495325 454.71216695 -121.11598066 452.34062167 -123.33984375 449.72265625 C-137.73761481 431.93410577 -148.115711 411.72222801 -158.21630859 391.30932617 C-161.49833114 384.69928046 -164.90798596 378.21430126 -168.58666992 371.81835938 C-173.47984921 363.27608582 -177.96401456 354.51571776 -182.46386719 345.76171875 C-183.43095249 343.88417643 -184.40261136 342.00897932 -185.37988281 340.13671875 C-206.66358908 299.35429367 -230.22706035 246.87284311 -217.96484375 200.02734375 C-212.14894653 182.61791458 -201.60637257 170.97030868 -185.82421875 162.078125 C-168.27640739 153.37035429 -149.52634953 152.74609898 -130.33984375 152.28515625 C-128.65103298 152.24187419 -126.96223075 152.19825714 -125.2734375 152.15429688 C-121.17066131 152.04822029 -117.06779598 151.94667985 -112.96484375 151.84765625 C-113.52164528 147.77262782 -114.41222045 144.3831928 -116.1171875 140.64453125 C-116.55844971 139.67362549 -116.99971191 138.70271973 -117.4543457 137.70239258 C-118.17110474 136.1655481 -118.17110474 136.1655481 -118.90234375 134.59765625 C-119.39887451 133.52862061 -119.89540527 132.45958496 -120.40698242 131.3581543 C-130.75049928 109.35287762 -143.58978206 88.71035174 -158.96484375 69.84765625 C-159.37250977 69.33847656 -159.78017578 68.82929688 -160.20019531 68.3046875 C-166.96436152 59.89490296 -174.42376722 52.18284263 -182.02734375 44.53515625 C-182.93709961 43.61613525 -183.84685547 42.69711426 -184.78417969 41.75024414 C-199.39550357 27.20590853 -215.99830079 14.9177311 -233.96484375 4.84765625 C-234.71942871 4.41984863 -235.47401367 3.99204102 -236.25146484 3.55126953 C-308.11152127 -36.83638008 -412.55555436 -44.73352686 -474.49487305 17.95800781 Z M-733.96484375 17.84765625 C-768.47097987 56.52166837 -774.64821987 112.16312191 -772.96484375 161.84765625 C-768.98077015 231.68442469 -748.69788333 303.44100466 -727.96484375 369.84765625 C-727.67802734 370.76677795 -727.39121094 371.68589966 -727.09570312 372.63287354 C-716.05197065 407.92535457 -704.12806103 442.53579779 -687.96484375 475.84765625 C-687.53075195 476.75676758 -687.09666016 477.66587891 -686.64941406 478.60253906 C-674.67292757 503.66938973 -657.71242065 537.49997996 -629.9140625 548 C-623.16531232 549.93970701 -617.11190595 549.25034848 -610.703125 546.4296875 C-597.9232309 539.04615382 -588.54111815 527.05896262 -579.4140625 515.765625 C-576.20803457 511.94600321 -572.81494591 508.32301215 -569.40698242 504.68432617 C-566.28959649 501.33701382 -563.32925208 497.91778837 -560.46484375 494.34765625 C-556.12955442 488.94825045 -551.47032914 483.90715259 -546.75 478.84765625 C-543.99193092 475.88948653 -541.31844948 472.86631533 -538.67578125 469.8046875 C-536.61974299 467.45291771 -534.50918795 465.1539857 -532.40234375 462.84765625 C-528.64865031 458.69545426 -525.21125244 454.40535943 -521.96484375 449.84765625 C-522.65449219 449.18121094 -523.34414063 448.51476562 -524.0546875 447.828125 C-541.49465771 430.72307877 -554.42271498 411.81331666 -561.27734375 388.22265625 C-561.5199292 387.38855225 -561.76251465 386.55444824 -562.01245117 385.69506836 C-565.29732946 373.75037306 -566.36592329 361.95772809 -566.33984375 349.59765625 C-566.34129395 348.88288116 -566.34274414 348.16810608 -566.34423828 347.43167114 C-566.34147096 334.79174324 -565.30849305 322.34573971 -563.96484375 309.78515625 C-562.35380058 294.72223978 -561.39535192 280.0125522 -561.96484375 264.84765625 C-562.00303223 263.80577148 -562.0412207 262.76388672 -562.08056641 261.69042969 C-562.16380175 259.45733484 -562.24764453 257.22426257 -562.33203125 254.99121094 C-562.37585938 253.83008789 -562.4196875 252.66896484 -562.46484375 251.47265625 C-562.50996094 250.29606445 -562.55507813 249.11947266 -562.6015625 247.90722656 C-565.39356537 169.30002805 -558.33344192 83.6703315 -508.96484375 18.84765625 C-508.50803223 18.24211914 -508.0512207 17.63658203 -507.58056641 17.01269531 C-504.74663663 13.26084777 -501.8660612 9.54783204 -498.96484375 5.84765625 C-497.58942694 4.07714664 -496.2143787 2.30635058 -494.83984375 0.53515625 C-493.88188274 -0.69430062 -492.9237125 -1.92359472 -491.96484375 -3.15234375 C-494.97973422 -5.16227073 -497.18973001 -5.92114045 -500.65234375 -6.88671875 C-502.39185303 -7.37253418 -502.39185303 -7.37253418 -504.16650391 -7.86816406 C-505.41995605 -8.20944336 -506.6734082 -8.55072266 -507.96484375 -8.90234375 C-508.60943542 -9.07842163 -509.2540271 -9.25449951 -509.91815186 -9.43591309 C-532.36845387 -15.54960831 -554.87675797 -20.19328117 -577.96484375 -23.15234375 C-578.85719727 -23.2709375 -579.74955078 -23.38953125 -580.66894531 -23.51171875 C-634.20462922 -30.47571015 -695.20350878 -23.0557525 -733.96484375 17.84765625 Z M-185.64453125 194.5859375 C-194.46018152 205.17787552 -195.80127637 219.58971851 -194.96484375 232.84765625 C-191.56340201 269.42431457 -174.6341022 303.93049535 -157.55371094 335.87451172 C-154.22155253 342.1097645 -150.90735874 348.35460353 -147.58984375 354.59765625 C-147.22346802 355.28704285 -146.85709229 355.97642944 -146.47961426 356.68670654 C-141.70690165 365.66848561 -136.93888084 374.65265021 -132.21484375 383.66015625 C-131.75029785 384.5409082 -131.28575195 385.42166016 -130.80712891 386.32910156 C-127.63180014 392.40394842 -124.74581702 398.5829987 -121.96484375 404.84765625 C-121.30484375 404.84765625 -120.64484375 404.84765625 -119.96484375 404.84765625 C-114.2659164 388.94764895 -109.63706538 373.65291359 -109.67578125 356.62890625 C-109.67755371 355.55507187 -109.67932617 354.48123749 -109.68115234 353.37486267 C-109.82305954 340.97888092 -111.1792052 328.72419193 -112.53189087 316.41259766 C-116.85208413 276.8411983 -115.74987623 241.08611355 -110.13545227 201.60961914 C-109.07683834 194.02976238 -108.29647772 186.49861644 -107.96484375 178.84765625 C-113.36846008 178.77239159 -118.77175828 178.7185393 -124.17578125 178.68286133 C-126.00656461 178.66795737 -127.83731348 178.64762711 -129.66796875 178.62133789 C-149.46539405 178.34456468 -170.99706179 179.42750981 -185.64453125 194.5859375 Z M-522.96484375 203.84765625 C-523.61291992 204.22519043 -524.26099609 204.60272461 -524.92871094 204.99169922 C-531.91475811 208.4720178 -531.91475811 208.4720178 -536.96484375 213.84765625 C-537.34526344 219.26304237 -536.91944774 224.69223321 -536.46484375 230.08984375 C-535.84009188 238.63743286 -535.80904467 247.15563132 -535.83984375 255.72265625 C-535.84316711 256.95986923 -535.84316711 256.95986923 -535.84655762 258.22207642 C-535.86487715 264.09750321 -535.90859607 269.97248087 -535.96484375 275.84765625 C-535.97108765 276.5764801 -535.97733154 277.30530396 -535.98376465 278.05621338 C-536.1457941 295.86448814 -537.29735142 313.32893124 -539.59277344 330.97729492 C-541.03425255 342.16383668 -541.64377189 352.91967744 -539.77734375 364.09765625 C-539.64352295 364.90630127 -539.50970215 365.71494629 -539.37182617 366.5480957 C-534.34354458 395.12946454 -519.35545217 420.54300506 -495.4362793 437.34716797 C-480.21358819 447.57256302 -464.15540864 451.79804813 -445.96484375 452.84765625 C-445.64435059 451.90486816 -445.32385742 450.96208008 -444.99365234 449.99072266 C-439.03214435 432.50866276 -432.8914481 415.14814716 -425.77734375 398.09765625 C-425.48463593 397.39495605 -425.1919281 396.69225586 -424.89035034 395.96826172 C-422.92550647 391.2570379 -420.94662738 386.55177357 -418.96484375 381.84765625 C-398.11843567 332.33237069 -398.01380812 284.20814038 -407.96484375 231.84765625 C-408.14837402 230.86007324 -408.3319043 229.87249023 -408.52099609 228.85498047 C-411.48185327 213.07397452 -414.9015558 198.85282874 -428.78515625 189.12890625 C-457.08806102 172.49207334 -497.37867826 188.77733934 -522.96484375 203.84765625 Z M-122.65234375 490.28515625 C-126.86316653 495.69534651 -127.51256859 502.44097601 -128.27734375 509.03515625 C-128.38884766 509.84146484 -128.50035156 510.64777344 -128.61523438 511.47851562 C-128.70611328 512.25388672 -128.79699219 513.02925781 -128.890625 513.828125 C-128.97739502 514.52832764 -129.06416504 515.22853027 -129.15356445 515.94995117 C-129.11527811 517.93052047 -129.11527811 517.93052047 -127.76928711 519.52587891 C-124.16158641 522.16856482 -119.5384912 522.32194868 -115.21484375 523.03515625 C-114.25707031 523.21240234 -113.29929687 523.38964844 -112.3125 523.57226562 C-98.76137194 525.89045728 -85.38427626 524.87640961 -71.83984375 523.16015625 C-71.12483704 523.07151306 -70.40983032 522.98286987 -69.67315674 522.89154053 C-40.48038595 519.23483111 -8.90508515 511.11906214 12.03515625 488.84765625 C9.80565258 489.11570125 7.57658382 489.38736213 5.34765625 489.66015625 C4.25698853 489.78946533 4.25698853 489.78946533 3.14428711 489.92138672 C-0.6849758 490.38796569 -4.47313764 490.91926538 -8.26171875 491.6484375 C-20.7412009 493.93791655 -33.12741917 494.17606145 -45.77734375 494.22265625 C-46.65389618 494.2303302 -47.53044861 494.23800415 -48.43356323 494.24591064 C-65.9516237 494.36834727 -82.54516414 492.82855679 -97.90234375 483.53515625 C-105.64262078 479.27010564 -117.05043859 484.0454104 -122.65234375 490.28515625 Z M-432.72216797 503.34960938 C-434.84597607 505.90986212 -437.03368032 508.41078409 -439.24609375 510.89453125 C-440.50081959 512.32035607 -441.7261995 513.77215967 -442.93359375 515.23828125 C-458.55502565 533.6896827 -479.33327898 538.54923166 -501.90234375 543.72265625 C-504.05038179 544.22418412 -506.19817053 544.72678098 -508.34570312 545.23046875 C-513.54927845 546.44851604 -518.75575712 547.65341108 -523.96484375 548.84765625 C-515.97062276 557.61511872 -496.91147324 560.41246683 -485.67480469 561.02783203 C-465.50850448 561.77305028 -447.31881692 560.85396927 -428.96484375 551.84765625 C-428.03285156 551.39519531 -427.10085938 550.94273437 -426.140625 550.4765625 C-411.67919151 543.03406744 -397.05770699 530.72482538 -389.96484375 515.84765625 C-388.25154559 508.5406711 -390.2741555 502.22264813 -393.703125 495.734375 C-397.09106054 490.66820514 -402.30492272 486.97012664 -407.96484375 484.84765625 C-419.11943282 482.78199161 -426.42389412 495.71451272 -432.72216797 503.34960938 Z " fill="#FFFFFF" transform="translate(799.96484375,64.15234375)"/>
<path d="M0 0 C3.55546934 2.95211697 5.69262069 5.4938414 6.625 10.0625 C5.25417605 16.50537257 1.18515242 20.10114297 -4 23.7421875 C-10.19051028 27.63543811 -17.03228118 27.93087124 -24.10546875 26.60546875 C-31.30070666 24.37939714 -37.50166022 18.75627613 -41.5625 12.5 C-43.37169691 8.09499883 -43.70700249 5.71334991 -43 1 C-40.76171875 -0.58984375 -40.76171875 -0.58984375 -38 -2 C-37.24203125 -2.40863281 -36.4840625 -2.81726563 -35.703125 -3.23828125 C-24.9729252 -7.93701524 -9.97980366 -6.21093754 0 0 Z " fill="#FFFFFF" transform="translate(372,266)"/>
<path d="M0 0 C1.62109375 2.08203125 1.62109375 2.08203125 2.30859375 5.26953125 C1.18224461 11.51564919 -2.53497456 15.89199626 -7.51953125 19.73046875 C-14.02511861 23.89886361 -19.67670895 24.96803564 -27.37890625 24.08203125 C-33.79303328 21.98319138 -38.88440423 18.90620128 -42.37890625 13.08203125 C-43.11218743 8.90232853 -42.95064704 6.9925814 -40.69140625 3.39453125 C-36.24720681 -0.46557341 -29.91647975 -1.4286458 -24.37890625 -2.91796875 C-23.67507813 -3.1809375 -22.97125 -3.44390625 -22.24609375 -3.71484375 C-15.35900502 -6.15961118 -5.64447828 -4.55080268 0 0 Z " fill="#FFFFFF" transform="translate(666.37890625,257.91796875)"/>
</svg>
